<svg width="18" height="36" viewBox="0 0 18 36" fill="none" xmlns="http://www.w3.org/2000/svg">
<path d="M9.1219 0.120502C9.21227 0.361507 9.39303 1.52887 9.39303 1.89038C9.39303 2.78661 9.06165 3.62259 8.4516 4.27782C7.947 4.82008 7.4424 5.12134 6.22985 5.61088C4.88173 6.16067 4.32441 6.49205 3.69177 7.11716C3.0516 7.75732 2.67504 8.45774 2.53947 9.27866C2.38884 10.1749 2.53947 10.8075 2.99888 11.169L3.23236 11.3498L2.86332 11.5833C2.11771 12.0728 0.762065 13.2251 0.528592 13.5791C0.0767091 14.2569 0.121897 14.8895 0.634031 15.1456L0.875035 15.2661L0.603906 15.5222C0.197211 15.9063 0.114366 16.1699 0.174617 16.8628C0.212274 17.3222 0.197211 17.5707 0.0917718 17.9473C-0.0362616 18.4368 -0.0362616 18.4444 0.129429 18.7908C0.295119 19.1297 0.762065 19.559 1.18382 19.7397C1.38717 19.8301 1.3947 19.8603 1.43989 20.5531C1.46248 20.9523 1.50014 22.2251 1.53027 23.3849C1.55286 24.5448 1.60558 25.6067 1.65077 25.7347C1.68842 25.8703 1.83152 26.051 1.95955 26.1414C2.39637 26.4427 2.69763 26.7665 2.89345 27.1431C3.11186 27.5724 3.35286 28.6268 4.0834 32.272L4.59554 34.8326L4.91186 35.1339C5.51437 35.7289 6.66667 36 8.56458 36C10.47 36 11.6073 35.7364 12.2098 35.1414L12.5336 34.8326L13.0006 32.4603C14.0324 27.2711 14.1227 26.9849 14.9286 26.3448C15.1771 26.1414 15.4181 25.8929 15.4633 25.7799C15.516 25.6519 15.5688 24.6653 15.6064 23.1741C15.6365 21.8485 15.6817 20.5381 15.7119 20.2594L15.757 19.7548L16.2466 19.3858C16.8642 18.9113 17.1052 18.482 17.1052 17.8192C17.0976 17.036 16.5855 16.1774 15.6516 15.4092L15.2073 15.0477L15.4257 14.7389C16.337 13.4812 15.7646 11.7414 14.07 10.5816L13.5579 10.2276L13.7462 10.0318C14.5821 9.13556 14.7177 6.46193 14.0173 4.60167C13.5955 3.49456 12.6315 2.28954 11.4491 1.40084C10.8692 0.964016 9.27252 0 9.12943 0C9.0993 0 9.0993 0.0527191 9.1219 0.120502ZM11.2909 2.74895C11.6901 3.14059 12.1721 3.67531 12.3604 3.94644C13.4826 5.51297 13.7688 7.47866 13.0909 8.92469C12.8198 9.51213 12.0064 10.3858 11.2533 10.9054C10.101 11.7038 7.51018 13.0444 5.70265 13.7824C2.79554 14.9649 1.10851 15.1908 0.912692 14.4151C0.837379 14.1213 1.05579 13.8879 1.98215 13.2703C2.81813 12.6979 6.56876 9.9113 6.63654 9.79833C6.65914 9.7682 6.27503 9.94142 5.79303 10.1824C4.15872 11.0109 3.38299 10.8527 3.42064 9.70042C3.44324 8.86444 4.04575 7.91548 4.88173 7.37322C5.09261 7.23766 5.74784 6.9364 6.35035 6.6954C8.3311 5.89707 8.93361 5.49038 9.60391 4.4887C10.0031 3.89372 10.4399 2.79414 10.47 2.3272C10.4775 2.16151 10.5077 2.03347 10.5303 2.03347C10.5529 2.03347 10.8918 2.35732 11.2909 2.74895ZM13.347 11.3046C13.8968 11.6134 14.4692 12.1406 14.7177 12.5548C15.1545 13.3004 14.9286 14.046 13.9872 14.995C12.9629 16.0343 11.2156 17.0285 9.29512 17.6611C7.52524 18.241 5.83068 18.5121 3.40558 18.595L1.8993 18.6477L2.87838 18.708C4.14365 18.7908 6.59135 18.7155 7.54031 18.5649C10.0633 18.1657 12.2098 17.3674 13.7462 16.2678C14.0926 16.0192 14.4541 15.8159 14.552 15.8159C14.8006 15.8159 15.8851 16.8552 16.1035 17.292C16.224 17.5406 16.2541 17.7213 16.2315 17.9623C16.1185 18.964 14.8985 19.4987 11.9537 19.8527C8.3537 20.282 3.64658 19.8603 1.6357 18.9339C0.686751 18.4971 0.528592 18.2485 0.769596 17.5858C0.84491 17.3749 0.859973 17.1264 0.829847 16.7724C0.79219 16.3054 0.799722 16.2452 0.965412 16.072C1.34198 15.6653 1.97462 15.4318 4.29428 14.8444C5.10767 14.6335 6.21478 14.3021 6.74198 14.1063C8.02232 13.6393 10.4248 12.4268 11.5395 11.6812C12.5863 10.9883 12.737 10.9582 13.347 11.3046ZM3.34533 20.523C4.92692 20.9824 6.32775 21.118 8.93361 21.0653C10.8918 21.0276 12.0968 20.9071 13.8365 20.5983C14.1905 20.5381 14.4993 20.4854 14.537 20.4854C14.6198 20.4854 14.5972 23.3774 14.5068 24.1381C14.4089 24.9439 14.1905 25.569 13.957 25.7197C13.716 25.8778 12.511 26.0435 10.8993 26.1339C7.59303 26.3146 4.19637 26.1339 3.14198 25.7121C2.5696 25.4787 2.50935 25.1774 2.50181 22.3833C2.50181 20.523 2.51688 20.2669 2.61478 20.3046C2.67504 20.3272 3.00642 20.4251 3.34533 20.523ZM5.13027 26.9247C5.67252 26.9925 6.25997 27.0603 6.44073 27.0828L6.76457 27.1205L6.47838 27.4368C6.10934 27.836 5.54449 28.6343 5.34114 29.041C5.10767 29.5079 5.03236 29.5381 4.68591 29.3498L4.39219 29.1841L4.2265 28.1598C4.13612 27.6025 4.03822 27.0678 4.01562 26.9774C3.94784 26.7816 3.88006 26.7816 5.13027 26.9247ZM13.1587 26.8418C13.1587 26.8569 13.1211 27.0527 13.0834 27.2711C13.0382 27.4971 12.8499 28.7247 12.6616 30.005C12.2775 32.6787 12.0215 33.9364 11.788 34.3582C11.4642 34.923 10.6884 35.2544 9.43068 35.3598C8.94114 35.3975 7.46499 35.2996 7.38215 35.2243C7.3219 35.1565 8.61729 33.5523 8.82064 33.4469C9.00893 33.3414 9.06165 33.3565 9.70181 33.6879C10.4474 34.0795 10.824 34.1397 10.824 33.8912C10.824 33.6427 10.6282 33.4017 10.1462 33.0703C9.70181 32.754 9.54365 32.5732 9.54365 32.3623C9.54365 32.3021 9.76206 31.9632 10.0257 31.6092C10.2893 31.2552 10.6734 30.6904 10.8692 30.3515L11.2382 29.7414L11.5771 29.7866C12.2625 29.8845 12.4432 29.877 12.4206 29.7264C12.4056 29.651 12.2775 29.4326 12.1344 29.2519C11.9914 29.0636 11.8784 28.8753 11.8784 28.8377C11.8784 28.6946 12.5788 27.3766 12.8047 27.0979C13.0006 26.8569 13.1587 26.7364 13.1587 26.8418ZM8.4516 27.4444C8.82817 27.6929 10.2441 28.9205 10.3344 29.0711C10.3721 29.1389 8.91855 31.4134 8.63236 31.7372C8.60223 31.7749 8.44407 31.6996 8.28591 31.5791C8.12776 31.451 7.54031 31.0444 6.97545 30.6753L5.95872 30.005L6.56876 28.9732C7.65328 27.1582 7.63068 27.1883 7.86416 27.1883C7.98466 27.1883 8.24826 27.3013 8.4516 27.4444ZM11.306 27.7155C11.0424 28.0393 10.824 28.2427 10.7336 28.2427C10.5378 28.2427 10.2215 28.0695 9.68675 27.6778L9.2424 27.354L10.1311 27.3013C10.6131 27.2787 11.0801 27.2485 11.1629 27.2335C11.7654 27.1356 11.7654 27.1431 11.306 27.7155ZM5.61227 31.3381C6.30516 31.6092 7.48006 32.2494 7.81897 32.5356C8.05997 32.7314 8.05997 32.7464 7.96206 32.9874C7.90181 33.123 7.69847 33.4845 7.49512 33.7933C7.2993 34.0946 7.07336 34.4711 6.99052 34.6293C6.74951 35.0962 6.6742 35.1339 6.17713 34.9983C5.6424 34.8402 5.35621 34.569 5.20558 34.0795C5.00223 33.3941 4.67838 31.4586 4.71604 31.1573C4.7311 31.0444 5.04742 31.1121 5.61227 31.3381Z" fill="black"/>
</svg>
