<svg width="29" height="36" viewBox="0 0 29 36" fill="none" xmlns="http://www.w3.org/2000/svg">
<path d="M11.9495 0.615261C7.47847 1.27831 3.79691 3.76068 2.4423 7.0112C2.01016 8.03811 1.89381 8.66881 1.89381 9.90595C1.90212 10.8197 1.93536 11.1593 2.07664 11.6525C2.36751 12.6228 2.57527 13.1161 3.00742 13.8114L3.40632 14.4583L2.95755 15.0082C-0.591032 19.423 -0.981625 25.633 1.97691 30.525C3.08221 32.3605 4.88559 34.1636 6.64742 35.2148L7.17098 35.5221L14.3346 35.4655L21.5066 35.4008L21.8473 35.2148C23.0357 34.5437 24.7144 33.0478 25.6535 31.8349C27.0663 29.9913 27.9888 27.8405 28.3794 25.5117C28.5123 24.6789 28.5123 22.2127 28.3711 21.4284C27.9472 19.0107 27.0414 16.9407 25.612 15.1052C25.3377 14.7575 25.1217 14.4664 25.1217 14.4421C25.1217 14.426 25.2712 14.1753 25.4458 13.8923C25.853 13.2454 26.2186 12.4126 26.4181 11.6849C26.6425 10.8763 26.6425 8.85479 26.4181 8.0462C25.6203 5.17571 23.2269 2.78228 19.8445 1.46428C18.8971 1.09233 17.2765 0.696121 16.2294 0.566746C15.2571 0.453545 12.8554 0.477802 11.9495 0.615261ZM17.0106 1.93326C21.4484 2.79845 24.6978 5.51531 25.2962 8.86287C25.4291 9.61486 25.346 10.8924 25.1217 11.604C24.8973 12.2994 24.4818 13.1161 23.9914 13.8114C23.792 14.0944 23.6258 14.4179 23.6258 14.523C23.6258 14.6281 23.8003 14.903 24.0496 15.178C26.1272 17.4824 27.2242 20.3691 27.2242 23.4903C27.2159 27.04 25.853 30.153 23.2269 32.595C22.7781 33.0154 22.1382 33.541 21.7975 33.7674L21.1742 34.1879L14.3014 34.2121L7.43691 34.2445L6.90504 33.9049C4.977 32.6516 3.24011 30.5816 2.27609 28.3822C1.06276 25.6007 0.938101 22.3744 1.92705 19.4797C2.45061 17.9757 3.14869 16.7466 4.21244 15.4529C4.64458 14.9354 4.84404 14.6281 4.84404 14.4826C4.84404 14.3613 4.62796 13.9651 4.34541 13.5527C3.34815 12.1053 2.94093 10.4962 3.18194 8.97608C3.43125 7.43976 4.12933 6.17836 5.41746 4.92504C7.09618 3.29978 9.43974 2.22435 12.1905 1.82006C13.3291 1.65026 15.8471 1.71494 17.0106 1.93326Z" fill="#131313"/>
<path d="M12.3233 3.35635C8.91603 3.91428 6.24836 5.80638 5.37576 8.28875C5.17631 8.84668 5.14307 9.065 5.14307 9.8655C5.14307 10.666 5.17631 10.8843 5.37576 11.4422C5.50042 11.798 5.73311 12.2913 5.89101 12.5419C6.32316 13.2373 6.5143 13.2616 7.37028 12.7441C8.6501 11.9597 10.1211 11.3856 11.6502 11.0703C12.6807 10.8601 14.6586 10.7792 15.7805 10.9086C17.534 11.1107 19.4371 11.7414 20.9579 12.639C21.3901 12.8896 21.8306 13.0999 21.9386 13.0999C22.5702 13.0999 23.3763 11.2805 23.3763 9.8655C23.3763 6.72009 20.3679 4.02748 16.1046 3.35635C15.1988 3.21081 13.1959 3.21081 12.3233 3.35635ZM16.437 4.6501C17.8664 4.95736 19.1795 5.53955 20.1685 6.30771C21.4981 7.33461 22.2128 8.76582 22.0965 10.1485C22.0549 10.6983 21.8472 11.4422 21.7225 11.5231C21.6893 11.5393 21.2239 11.3452 20.692 11.0865C19.5867 10.5528 18.3318 10.1242 17.0603 9.84933C16.2874 9.68761 15.9633 9.66335 14.2348 9.67144C12.5311 9.67144 12.1737 9.6957 11.4341 9.84933C10.1543 10.1242 9.15704 10.4639 7.92708 11.046C6.68882 11.6363 6.7553 11.6444 6.53092 10.9167C6.24005 9.97062 6.42288 8.7173 6.988 7.77125C7.28718 7.26993 8.10992 6.43708 8.70827 6.0247C9.84681 5.24037 10.8441 4.88459 12.9882 4.49646C13.4286 4.41561 15.8719 4.52881 16.437 4.6501Z" fill="#131313"/>
<path d="M15.0827 15.0808C14.85 15.3719 14.85 15.6468 15.091 15.8813C15.2489 16.0349 15.4068 16.0754 15.9802 16.1158C17.0938 16.1967 18.1576 16.5201 19.1133 17.0699C19.7947 17.4742 20.8335 18.4526 21.2989 19.1561C21.9887 20.1668 22.4624 21.6142 22.4624 22.6815C22.4624 23.0535 22.4956 23.1667 22.6702 23.3284C22.9361 23.5953 23.2851 23.5953 23.5428 23.3284C23.7256 23.1424 23.7339 23.0939 23.684 22.3015C23.4513 18.3879 20.1022 15.1212 16.0966 14.9029L15.2655 14.8544L15.0827 15.0808Z" fill="#131313"/>
</svg>
