<svg width="36" height="36" viewBox="0 0 36 36" fill="none" xmlns="http://www.w3.org/2000/svg">
<g clip-path="url(#clip0_11708_12398)">
<path d="M6.93937 0.216297C6.64615 0.469917 5.80724 2.21992 5.50588 3.17524C5.14751 4.35881 5.02534 5.24649 5.07421 6.47234C5.13937 8.22233 5.57919 9.54963 6.54842 10.9361C6.80091 11.2996 7.00453 11.6124 7.00453 11.6378C7.00453 11.6547 6.84977 11.6716 6.6543 11.6716C5.81538 11.6716 4.24344 11.9506 3.03801 12.3141C1.12398 12.889 0 13.895 0 15.0194C0 15.4168 0.358371 16.0931 0.741176 16.4397C1.48235 17.1076 3.10317 17.7417 4.84615 18.046C5.44887 18.1559 7.24072 18.3419 7.63982 18.3504C7.71312 18.3504 7.73756 18.7392 7.73756 20.0158C7.73756 21.1148 7.77828 21.9687 7.85973 22.4929C8.15294 24.3697 9.06516 26.3564 10.2706 27.7598L10.686 28.2417L10.409 28.6897C10.0018 29.3238 9.84706 29.8057 9.79819 30.5243C9.67602 32.2489 10.7511 33.7791 12.8281 34.8528C16.7864 36.9071 22.9357 36.104 25.2407 33.2296C26.3647 31.8262 26.495 30.2199 25.6072 28.7658L25.3303 28.3177L25.8272 27.7175C26.7557 26.6016 27.3584 25.4856 27.8145 24.0738C28.1973 22.8733 28.3439 21.7151 28.3439 19.8805C28.3439 19.0436 28.3683 18.3504 28.4091 18.3504C28.7837 18.3419 30.5837 18.1475 31.1538 18.046C32.905 17.7417 34.4932 17.1161 35.2588 16.4397C35.6416 16.0931 36 15.4168 36 15.0194C36 13.7682 34.7294 12.7537 32.3674 12.145C31.5937 11.9421 30.1357 11.697 29.4272 11.6547L29.0932 11.6293L29.4597 11.1221C29.9158 10.5049 30.486 9.30446 30.7059 8.51823C31.3249 6.24407 30.9421 3.59794 29.6145 1.07016C29.0606 0.0218506 28.6778 -0.223316 28.2299 0.190933C28.0588 0.351562 27.9855 0.571369 27.8226 1.36605C27.3176 3.89383 26.381 5.89746 25.0127 7.37692L24.41 8.03634H17.9674H11.5249L10.9873 7.45301C9.65158 5.982 8.68235 3.90229 8.17738 1.36605C8.01448 0.571369 7.94118 0.351562 7.77014 0.190933C7.50136 -0.0542336 7.24072 -0.0457802 6.93937 0.216297ZM7.9819 5.22958C8.41358 6.17644 8.95113 7.06412 9.58643 7.88417L10.0914 8.53514L9.56199 8.93248C9.06516 9.31291 8.60091 9.85398 8.24253 10.4711L8.08778 10.7501L7.69683 10.2175C6.36109 8.37451 6.02715 6.11726 6.73575 3.77547C7.07783 2.64263 7.06968 2.65108 7.37919 3.63176C7.52579 4.10519 7.80272 4.82378 7.9819 5.22958ZM29.1828 3.44577C29.5167 4.45181 29.6471 5.25494 29.6471 6.2948C29.6471 7.83345 29.2398 9.13538 28.3846 10.302L28.0018 10.8262L27.7167 10.3443C27.3828 9.75253 26.8127 9.13538 26.2914 8.78031C26.0715 8.63659 25.9005 8.49287 25.9005 8.47596C25.9005 8.4506 26.0552 8.25615 26.2507 8.0448C27.1548 7.03876 28.124 5.22958 28.6045 3.67403C28.7511 3.19214 28.8977 2.7948 28.9222 2.7948C28.9466 2.7948 29.0688 3.09069 29.1828 3.44577ZM25.0208 9.62572C25.9249 10.0062 26.7882 11.0967 26.9267 12.0182C27 12.5255 27.171 12.8467 27.391 12.8975C27.4887 12.9144 28.1647 12.9735 28.8896 13.0243C31.4634 13.1933 33.4914 13.7429 34.3548 14.4953C34.7538 14.8504 34.7131 15.1462 34.2326 15.5098C33.2715 16.2368 31.1946 16.7863 29.0769 16.8793C27.676 16.9385 27.3828 16.9808 27.1955 17.1752C27.057 17.319 27.0407 17.4711 27.0407 19.0013C27.0407 21.0726 26.9348 22.2646 26.6742 23.2284C26.3077 24.5388 25.5828 25.9337 24.7357 26.9228L24.3855 27.3286L23.6606 26.8974C22.781 26.3733 21.9584 26.0351 20.9729 25.8069C17.886 25.0714 14.4733 25.5194 12.1765 26.9651L11.6471 27.3032L11.3131 26.9059C10.857 26.3733 10.1403 25.232 9.8552 24.5895C9.22806 23.1354 9.04072 21.9518 9.04072 19.3479C9.04072 16.8202 9.17104 17.0061 7.29774 16.9047C4.90317 16.7779 3.07873 16.3467 1.93032 15.6197C1.08326 15.0786 1.22172 14.5967 2.40271 14.0303C3.53484 13.4808 5.0905 13.1511 7.24887 13.0158C8.9267 12.9059 8.96742 12.8805 9.12217 12.069C9.35023 10.8431 10.2543 9.82862 11.3946 9.50736C11.6796 9.42282 13.276 9.40591 18.1629 9.41436L24.5566 9.43127L25.0208 9.62572ZM20.4434 27.1257C22.4389 27.616 23.9294 28.5291 24.5729 29.6619C24.7276 29.924 24.7928 30.1945 24.8253 30.6088C24.8579 31.1245 24.8335 31.2513 24.638 31.674C23.7339 33.5931 20.4109 34.8612 17.0308 34.5738C12.9665 34.2356 10.295 31.9699 11.3457 29.7465C11.9158 28.546 13.8462 27.3962 15.8824 27.0581C16.2163 27.0074 16.5502 26.9482 16.6154 26.9313C16.6805 26.9144 17.4136 26.9144 18.2443 26.9313C19.3765 26.9566 19.9222 27.0074 20.4434 27.1257Z" fill="#131313"/>
<path d="M12.364 13.8613C11.859 14.0304 11.5169 14.2502 11.0608 14.7067C10.6617 15.0871 10.6291 15.5352 10.9631 15.8057C11.2726 16.0593 11.5658 16.0255 11.9404 15.6958C12.4128 15.2816 12.7793 15.1125 13.2355 15.1125C13.6916 15.104 14.0418 15.2647 14.5305 15.6958C14.9051 16.0255 15.1983 16.0593 15.5079 15.8057C15.6707 15.6705 15.7196 15.5606 15.7196 15.3069C15.7196 15.0449 15.6626 14.9265 15.3775 14.6391C14.5712 13.8275 13.3739 13.5147 12.364 13.8613Z" fill="#131313"/>
<path d="M21.8606 13.8525C21.3393 14.047 20.6714 14.4866 20.4026 14.8163C20.142 15.1376 20.1339 15.5011 20.4026 15.7716C20.6714 16.0591 20.9972 16.0422 21.3882 15.7209C22.3492 14.9262 23.066 14.9009 23.9538 15.6364C24.1818 15.8308 24.4425 15.983 24.5239 15.983C24.923 15.983 25.2488 15.6279 25.2488 15.2052C25.2488 14.9347 24.5728 14.3091 23.9619 14.0132C23.2859 13.6835 22.4796 13.6243 21.8606 13.8525Z" fill="#131313"/>
<path d="M13.5448 29.5016C13.3086 29.7298 13.2272 30.0595 13.3493 30.3216C13.4389 30.533 13.5774 30.6175 14.1394 30.7697C14.3919 30.8373 14.4978 30.9218 14.5874 31.1332C14.7014 31.4122 14.7095 31.4122 15.3367 31.4375L15.9638 31.4629V31.2262C15.9557 30.888 15.7683 30.3977 15.524 30.0595C15.2389 29.6706 14.7421 29.417 14.1801 29.3663C13.7973 29.3325 13.6996 29.3494 13.5448 29.5016Z" fill="#131313"/>
<path d="M21.3233 29.4419C20.916 29.5518 20.3296 30.1013 20.1667 30.5325C20.0934 30.7269 20.0201 31.0735 20.012 31.3018C19.9957 31.6653 20.0282 31.7499 20.2237 31.9274C20.7043 32.3501 21.3396 32.0204 21.3396 31.3441C21.3396 31.0143 21.5839 30.7861 22.0156 30.7015C22.4717 30.617 22.6346 30.431 22.6427 29.9999C22.6427 29.4334 22.1377 29.2136 21.3233 29.4419Z" fill="#131313"/>
</g>
<defs>
<clipPath id="clip0_11708_12398">
<rect width="36" height="36" fill="white"/>
</clipPath>
</defs>
</svg>
