<?xml version="1.0" standalone="no"?>
<!DOCTYPE svg PUBLIC "-//W3C//DTD SVG 20010904//EN"
 "http://www.w3.org/TR/2001/REC-SVG-20010904/DTD/svg10.dtd">
<svg version="1.0" xmlns="http://www.w3.org/2000/svg"
 width="438.000000pt" height="438.000000pt" viewBox="0 0 438.000000 438.000000"
 preserveAspectRatio="xMidYMid meet">
<metadata>
Created by potrace 1.14, written by Peter Selinger 2001-2017
</metadata>
<g transform="translate(0.000000,438.000000) scale(0.100000,-0.100000)"
fill="#000000" stroke="none">
<path d="M1925 4329 c-4 -6 10 -27 30 -47 44 -44 66 -84 94 -176 29 -95 28
-122 -6 -131 -83 -20 -147 -102 -146 -186 1 -55 32 -121 73 -151 17 -12 30
-24 30 -27 0 -3 -34 -24 -74 -45 -160 -84 -280 -249 -316 -434 l-13 -64 -55
-24 c-62 -27 -164 -98 -203 -140 -51 -56 -110 -153 -136 -226 -21 -59 -27 -96
-31 -189 -5 -132 9 -203 59 -304 l30 -62 -30 -31 c-30 -29 -31 -34 -31 -117 0
-99 9 -121 55 -141 l33 -13 4 -123 c3 -112 6 -127 30 -164 34 -52 78 -89 125
-104 21 -7 42 -16 47 -21 5 -4 32 -77 62 -161 49 -144 106 -308 225 -648 28
-80 57 -165 65 -190 8 -25 18 -54 23 -65 5 -11 21 -55 36 -97 50 -143 146
-217 281 -218 59 0 81 5 132 31 65 32 126 95 142 146 5 15 20 60 35 98 14 39
41 115 60 170 32 96 79 229 200 570 31 88 72 206 91 261 l35 102 43 12 c56 15
110 60 139 113 19 36 22 60 24 162 l2 120 32 16 c50 25 59 52 58 159 -2 83 1
102 24 151 37 81 50 164 44 277 -6 117 -31 193 -97 289 -53 78 -134 147 -227
195 l-64 33 -4 95 c-2 52 -11 120 -19 150 l-16 55 56 162 56 162 -18 32 c-23
38 -79 70 -138 76 -62 7 -89 -14 -117 -93 -12 -35 -27 -64 -32 -64 -6 0 -24
11 -41 24 -73 55 -194 100 -303 112 -35 3 -63 9 -63 11 0 3 10 19 22 35 26 37
35 113 18 162 -16 48 -92 114 -142 122 -36 6 -38 8 -38 44 0 49 -34 178 -60
230 -21 41 -65 90 -81 90 -4 0 -11 -5 -14 -11z m145 -408 c0 -5 -12 -12 -27
-16 -15 -3 -45 -25 -66 -48 -35 -37 -38 -39 -24 -12 16 32 53 69 77 78 24 9
40 8 40 -2z m70 -1 c12 -8 12 -10 -5 -10 -11 0 -27 5 -35 10 -12 8 -12 10 5
10 11 0 27 -5 35 -10z m610 -320 c-11 -11 -20 -24 -20 -29 0 -5 -3 -16 -6 -25
-5 -14 5 -16 70 -16 42 0 76 -3 76 -6 0 -4 -5 -24 -11 -44 l-12 -38 -57 5
c-77 7 -106 -1 -114 -31 -3 -13 -9 -31 -12 -40 -5 -14 4 -16 70 -16 83 0 85
-2 65 -59 -11 -31 -13 -32 -55 -25 -63 9 -113 -2 -123 -29 -27 -71 -30 -67 53
-67 42 0 76 -3 76 -6 0 -4 -5 -24 -12 -45 l-11 -39 -78 0 -79 0 -14 -33 c-33
-81 -36 -77 48 -77 44 0 76 -4 76 -10 0 -5 -17 -10 -38 -10 -21 0 -64 -7 -95
-15 -32 -8 -60 -15 -62 -15 -3 0 0 12 6 28 15 36 129 365 180 517 45 131 52
145 80 145 18 0 18 -1 -1 -20z m-385 -15 c33 -9 87 -29 120 -45 70 -34 139
-89 113 -90 -9 0 -20 5 -23 10 -4 6 -32 23 -63 39 -176 87 -382 87 -553 1 -72
-37 -165 -114 -203 -168 -16 -24 -31 -40 -34 -37 -10 9 71 116 122 160 139
122 348 174 521 130z m-251 -74 c7 -10 -18 -34 -27 -25 -7 8 3 34 13 34 5 0
11 -4 14 -9z m288 -23 c-15 -15 -26 -4 -18 18 5 13 9 15 18 6 9 -9 9 -15 0
-24z m-124 -95 c2 -8 -6 -13 -22 -13 -28 0 -43 15 -24 23 20 8 41 3 46 -10z
m-502 -328 c10 -8 35 -15 55 -15 50 0 99 -11 99 -21 0 -5 -6 -9 -13 -9 -19 0
-50 -37 -42 -49 12 -20 44 -11 80 20 l35 32 66 -33 c62 -30 184 -132 205 -171
7 -14 2 -26 -25 -55 -49 -54 -112 -186 -132 -278 -20 -95 -15 -203 16 -290 11
-33 20 -61 20 -63 0 -1 -184 -3 -410 -3 l-410 0 -24 38 c-68 102 -98 284 -71
417 25 123 66 197 160 291 86 87 161 131 270 159 32 8 66 22 74 30 19 19 22
19 47 0z m189 -35 c3 -6 -1 -7 -9 -4 -18 7 -21 14 -7 14 6 0 13 -4 16 -10z
m833 -135 c195 -46 357 -210 398 -404 7 -36 14 -76 14 -88 0 -36 -20 -27 -21
10 -1 30 -1 31 -9 7 -30 -95 -130 -203 -235 -254 -70 -34 -78 -36 -179 -36
-90 0 -105 2 -100 15 7 18 -18 20 -46 5 -27 -14 -126 41 -196 110 -81 80 -124
173 -131 288 -6 93 7 177 34 220 28 46 176 121 263 135 57 9 149 6 208 -8z
m399 -607 c-3 -7 -5 -2 -5 12 0 14 2 19 5 13 2 -7 2 -19 0 -25z m-10 -40 c-3
-8 -6 -5 -6 6 -1 11 2 17 5 13 3 -3 4 -12 1 -19z m-900 -308 c1 -63 2 -136 3
-162 0 -89 79 -133 109 -61 10 26 30 152 31 197 0 26 16 9 24 -26 4 -17 2 -28
-4 -28 -5 0 -10 -4 -10 -9 0 -23 81 -32 331 -35 l264 -4 0 -109 c0 -127 -16
-170 -76 -210 -36 -24 -40 -24 -305 -28 -487 -8 -575 -13 -599 -35 -27 -26
-33 -25 -66 6 -26 25 -49 26 -49 3 0 -6 13 -23 28 -39 l29 -28 -77 -77 -76
-76 -67 70 c-37 38 -67 75 -67 82 0 7 11 25 25 39 22 23 23 28 11 45 -11 15
-17 17 -27 8 -19 -15 -228 0 -265 20 -83 43 -107 93 -112 227 l-4 105 238 3
c344 3 501 12 514 27 8 10 7 16 -2 22 -7 4 -193 10 -413 11 -256 3 -405 7
-412 14 -17 14 -17 140 -1 156 9 9 133 12 518 10 l505 -3 2 -115z m821 108
c17 -17 16 -154 0 -160 -7 -3 -127 -6 -266 -7 l-253 -2 6 48 c3 26 8 67 11 91
l5 42 243 0 c175 0 245 -3 254 -12z m-790 -649 c12 -5 22 -14 22 -21 0 -7 -31
-46 -68 -86 l-67 -74 -73 76 -74 75 19 25 c18 25 19 26 118 19 55 -3 110 -10
123 -14z m-704 -16 c4 -10 -1 -24 -13 -37 -20 -20 -20 -20 -31 8 -5 15 -10 32
-10 37 0 16 48 10 54 -8z m1083 1 c4 -11 -16 -38 -63 -85 l-69 -69 -69 69
c-93 94 -88 101 76 101 99 0 120 -3 125 -16z m127 -6 c-4 -13 -12 -31 -19 -41
-10 -15 -12 -12 -10 20 3 46 1 43 21 43 11 0 14 -6 8 -22z m-719 -114 l69 -74
-74 -75 -75 -75 -75 75 -75 75 75 75 c41 41 77 74 80 74 3 -1 36 -35 75 -75z
m-355 -6 l65 -70 -69 -64 c-38 -35 -70 -64 -71 -64 -2 0 -5 8 -8 18 -3 9 -19
56 -36 105 l-31 87 32 30 c18 16 38 29 43 28 6 0 39 -32 75 -70z m704 -142
l-69 -75 -75 75 -75 75 75 69 75 69 69 -69 69 -68 -69 -76z m336 178 c0 -15
-64 -194 -80 -225 -7 -12 -13 -31 -15 -43 -2 -11 -15 -48 -29 -81 -14 -33 -26
-68 -26 -77 0 -10 -8 -37 -19 -60 -10 -24 -31 -81 -46 -128 -15 -47 -34 -101
-42 -120 -13 -32 -15 -34 -25 -15 -5 11 -29 37 -52 57 l-41 38 75 69 c41 39
81 68 87 66 14 -5 36 29 26 38 -3 4 -1 13 5 20 16 19 43 97 33 97 -4 0 -20
-13 -36 -30 -16 -16 -32 -30 -35 -30 -3 0 -39 31 -79 69 l-73 69 74 70 73 70
58 -55 c46 -44 61 -53 68 -42 16 25 10 39 -38 90 l-47 50 69 69 c62 62 70 67
91 58 13 -6 24 -17 24 -24z m-865 -359 c-64 -68 -95 -89 -95 -67 0 4 -27 36
-60 71 -34 35 -60 67 -58 72 2 4 32 40 67 79 l64 72 77 -77 76 -76 -71 -74z
m361 144 l72 -71 -74 -75 -73 -75 -28 23 c-15 13 -50 48 -77 76 l-49 53 68 70
c38 38 73 70 79 70 6 0 43 -32 82 -71z m-197 -167 c95 -99 94 -84 15 -163 -37
-38 -73 -69 -79 -69 -6 0 -42 31 -80 70 l-68 69 69 75 c38 41 73 75 78 75 5 1
35 -25 65 -57z m377 -18 l63 -70 -65 -72 c-36 -40 -71 -72 -77 -72 -6 0 -43
32 -82 70 l-71 71 75 74 c42 41 80 73 85 72 5 -2 38 -35 72 -73z m-672 -81
c-18 -28 -29 -24 -41 14 -6 21 -15 47 -19 58 -5 13 6 8 32 -18 30 -30 36 -41
28 -54z m66 16 c0 -14 -17 -10 -23 5 -4 10 -1 13 9 9 7 -3 14 -9 14 -14z m420
-264 l-75 -75 -75 75 -75 75 75 75 75 75 75 -75 75 -75 -75 -75z m-355 146
l71 -69 -33 -36 c-18 -20 -36 -36 -39 -36 -4 0 -18 -12 -31 -27 -30 -32 -30
-32 -73 94 l-32 95 28 24 c16 13 31 23 33 24 3 0 36 -31 76 -69z m575 -201 c7
11 9 8 6 -15 -4 -40 -46 -135 -59 -135 -6 0 -21 -10 -34 -22 l-23 -21 -34 24
c-19 14 -53 45 -75 71 l-41 46 72 77 73 77 52 -59 c43 -47 55 -55 63 -43z
m-397 22 c37 -38 67 -71 67 -74 0 -10 -134 -138 -144 -138 -6 0 -40 31 -76 69
l-66 69 64 71 c35 39 69 71 76 71 6 0 42 -31 79 -68z m176 -186 c20 -22 42
-45 49 -53 18 -18 16 -22 -57 -98 l-64 -66 -69 68 c-37 37 -68 72 -68 77 0 6
30 41 67 78 76 76 67 77 142 -6z m-307 -89 c-9 -21 -10 -20 -26 17 -23 55 -20
65 10 33 21 -23 24 -33 16 -50z m468 24 c0 -6 -4 -13 -10 -16 -5 -3 -14 -23
-20 -44 -12 -44 -58 -94 -112 -122 -26 -13 -58 -19 -108 -19 -82 0 -126 18
-179 74 l-34 35 24 20 24 20 71 -70 c65 -65 73 -70 109 -67 35 2 51 13 124 85
47 46 82 83 78 83 -10 0 16 29 26 30 4 0 7 -4 7 -9z"/>
<path d="M1592 2997 c-16 -19 -2 -33 38 -39 44 -7 60 -1 60 22 0 30 -76 43
-98 17z"/>
<path d="M1422 2867 c-41 -44 -19 -86 24 -46 26 24 39 19 46 -16 2 -12 11 -20
23 -20 32 0 32 49 1 80 -31 31 -66 32 -94 2z"/>
<path d="M2210 2835 c19 -19 36 -35 39 -35 3 0 -10 16 -29 35 -19 19 -36 35
-39 35 -3 0 10 -16 29 -35z"/>
<path d="M1806 2779 c-32 -25 -36 -69 -6 -69 10 0 24 9 30 20 12 22 45 27 56
9 4 -7 7 -21 8 -33 1 -24 34 -35 47 -14 15 23 10 45 -17 77 -31 38 -78 41
-118 10z"/>
<path d="M1567 2783 c-4 -3 -7 -19 -7 -35 0 -34 31 -68 63 -68 31 0 67 27 67
51 0 23 -25 25 -47 4 -20 -20 -43 -3 -43 31 0 23 -19 32 -33 17z"/>
<path d="M2631 2734 c-31 -39 -29 -107 4 -139 31 -32 38 -31 69 6 18 21 26 42
26 68 0 44 -31 91 -60 91 -10 0 -28 -12 -39 -26z m49 -13 c0 -21 -13 -41 -26
-41 -14 0 -19 31 -7 43 10 10 33 8 33 -2z"/>
<path d="M2934 2752 c-34 -23 -43 -85 -19 -132 23 -45 48 -54 79 -29 22 17 26
29 26 70 0 40 -5 55 -25 74 -25 26 -42 30 -61 17z m24 -47 c-2 -14 -7 -26 -13
-26 -5 0 -11 12 -13 26 -2 18 1 25 13 25 12 0 15 -7 13 -25z"/>
<path d="M2856 2618 c-11 -6 -39 -8 -67 -5 l-49 6 0 -45 c0 -50 20 -98 45
-108 69 -26 118 21 113 108 -3 53 -12 62 -42 44z m-21 -81 c21 -31 19 -39 -12
-35 -26 3 -58 42 -47 59 7 12 44 -3 59 -24z"/>
<path d="M2802 2530 c7 -11 16 -20 21 -20 4 0 3 9 -3 20 -6 11 -15 20 -20 20
-6 0 -5 -9 2 -20z"/>
</g>
</svg>
